<svg xmlns="http://www.w3.org/2000/svg" width="64" height="64" viewBox="0 0 64 64">
  <defs>
    <linearGradient id="bg" x1="0%" y1="0%" x2="100%" y2="100%">
      <stop offset="0%" style="stop-color:#6366f1"/>
      <stop offset="100%" style="stop-color:#4f46e5"/>
    </linearGradient>
  </defs>
  <circle cx="32" cy="32" r="32" fill="#f0ad4e"/>
  <g transform="translate(12, 12) scale(1.67)" fill="none" stroke="white" stroke-width="1.5" stroke-linecap="round" stroke-linejoin="round">
    <!-- HiOutlineAcademicCap path -->
    <path d="M12 14l9-5-9-5-9 5 9 5z"/>
    <path d="M12 14l6.16-3.422a12.083 12.083 0 01.665 6.479A11.952 11.952 0 0012 20.055a11.952 11.952 0 00-6.824-2.998 12.078 12.078 0 01.665-6.479L12 14z"/>
    <path d="M12 14l9-5-9-5-9 5 9 5z"/>
    <path d="M12 14v7m0 0l-3.75-1.25M21 8v4.5"/>
  </g>
</svg>

